<svg id="Layer_1" data-name="Layer 1" xmlns="http://www.w3.org/2000/svg" viewBox="0 0 467.76 656.33">
    <defs>
        <style>.cls-1{fill:#fff;}</style>
    </defs>
    <path class="cls-1" d="M192.57,158.59V199h31.19a36.8,36.8,0,0,1,14.67,15.59,36.4,36.4,0,0,1,3.67,16.51h61.45a35.3,35.3,0,0,0,13.76-1.83,35.93,35.93,0,0,0,16.51-11.93,35,35,0,0,0,5-12,36,36,0,0,0-2.21-21,47.91,47.91,0,0,0-45.86-25.68Z"/>
    <rect class="cls-1" x="240.27" y="240.22" width="68.79" height="24.76"/>
    <path class="cls-1" d="M240.27,275.08a140.26,140.26,0,0,1-54.12,100q.91,70.17,1.84,140.33c-.2,1.21-1.3,8.5,3.67,14.68A18.88,18.88,0,0,0,210,536.48H319.15A19.23,19.23,0,0,0,332,531.89a19.63,19.63,0,0,0,6.42-14.67V371.38q-14.69-48.15-29.35-96.3Z"/>
    <polygon class="cls-1" points="186.15 158.48 161.39 165.01 161.39 194.8 186.15 199.87 186.15 158.48"/>
    <path class="cls-1" d="M211.83,206.29A14.82,14.82,0,0,1,232,218.21a129.39,129.39,0,0,1-13.76,28.43,130.92,130.92,0,0,1-33,34.86,9.36,9.36,0,0,1-11.46-12.84,124.13,124.13,0,0,0,28-35.78A122.57,122.57,0,0,0,211.83,206.29Z"/>
    <path class="cls-1" d="M152.54,169.89c-6.49-4.75-25.7-18.25-31.77-13.09a5.81,5.81,0,0,0-1.59,5.79C121.84,171.64,149.86,170.06,152.54,169.89Z"/>
    <path class="cls-1" d="M152.86,188.94c-8-.74-31.43-2.43-34,5.13a5.78,5.78,0,0,0,1.63,5.77C127.44,206.24,150.65,190.46,152.86,188.94Z"/>
    <path class="cls-1" d="M141.26,179.18c-7.61-2.63-29.95-9.86-34.22-3.13a5.8,5.8,0,0,0,.19,6C112.44,189.91,138.75,180.13,141.26,179.18Z"/>
</svg>